# xmcd
#
# Track frame offsets:
#	150
#	13266
#	25132
#	42859
#	58502
#	75724
#	90199
#	103048
#	118786
#	134239
#	149407
#	169942
#
# Disc length: 2443 seconds
#
# Revision: 0
# Processed by: cddbd v1.5.2PL0 Copyright (c) Steve Scherf et al.
# Submitted via: EasyCDDAExtractor 11.1.0.1
#
DISCID=a209890c
DTITLE=Jeanette Nielsen - Calling 911
DYEAR=1900
DGENRE=country
TTITLE0=Calling 911
TTITLE1=I walk the line
TTITLE2=Any man of mine
TTITLE3=Deep down in my mind
TTITLE4=Take these chains from my heart
TTITLE5=Who I am
TTITLE6=Volvo b18
TTITLE7=Seasons in the sun
TTITLE8=Honey I'm home
TTITLE9=Rodeo hero
TTITLE10=Mississippi
TTITLE11=She'll have to go
EXTD=
EXTT0=
EXTT1=
EXTT2=
EXTT3=
EXTT4=
EXTT5=
EXTT6=
EXTT7=
EXTT8=
EXTT9=
EXTT10=
EXTT11=
PLAYORDER=
